<svg viewBox="0 0 1024 1024" xmlns="http://www.w3.org/2000/svg" style="position: relative; top: 4.8px; width: 14.4px;"><path d="M365.714 327.385h202.407v104.748h2.894c28.16-50.993 97.095-104.748 199.819-104.748 213.653 0 253.166 134.28 253.166 308.924v355.692h-210.983v-315.321c0-75.212-1.525-171.953-109.746-171.953-109.883 0-126.651 81.907-126.651 166.491v320.783h-210.905v-664.615zM0 327.385h219.429v664.615h-219.429v-664.615zM219.429 142.769c0 61.176-49.121 110.769-109.714 110.769s-109.714-49.593-109.714-110.769c0-61.176 49.121-110.769 109.714-110.769s109.714 49.593 109.714 110.769z" fill="#FFFFFF"></path></svg>
